<mxfile host="65bd71144e">
    <diagram id="8Hsk_wAVXJo-JNuX2m-x" name="Page-1">
        <mxGraphModel dx="881" dy="1667" grid="1" gridSize="10" guides="1" tooltips="1" connect="1" arrows="1" fold="1" page="1" pageScale="1" pageWidth="1000" pageHeight="1000" math="0" shadow="0">
            <root>
                <mxCell id="0"/>
                <mxCell id="1" parent="0"/>
                <mxCell id="31" value="" style="group" vertex="1" connectable="0" parent="1">
                    <mxGeometry x="200" y="-600" width="400" height="440" as="geometry"/>
                </mxCell>
                <mxCell id="32" value="&lt;div&gt;&lt;br&gt;&lt;/div&gt;" style="rounded=0;whiteSpace=wrap;html=1;strokeWidth=3;strokeColor=light-dark(#000000,#000000);fillColor=light-dark(#FFFFFF,#FFFFFF);fontColor=light-dark(#000000,#000000);" vertex="1" parent="31">
                    <mxGeometry width="400" height="40" as="geometry"/>
                </mxCell>
                <mxCell id="33" value="" style="whiteSpace=wrap;html=1;aspect=fixed;fillColor=light-dark(#FFFFFF,#FFFFFF);strokeWidth=2;strokeColor=light-dark(#000000,#000000);fontColor=light-dark(#000000,#080808);container=0;" vertex="1" parent="31">
                    <mxGeometry y="40" width="80" height="80" as="geometry"/>
                </mxCell>
                <mxCell id="34" value="&lt;b&gt;&lt;font style=&quot;font-size: 20px; color: light-dark(rgb(0, 0, 0), rgb(0, 0, 0));&quot;&gt;CD&lt;/font&gt;&lt;/b&gt;" style="text;html=1;align=center;verticalAlign=middle;resizable=0;points=[];autosize=1;strokeColor=none;fillColor=none;fontColor=light-dark(#000000,#000000);container=0;" vertex="1" parent="31">
                    <mxGeometry y="80" width="50" height="40" as="geometry"/>
                </mxCell>
                <mxCell id="35" value="" style="endArrow=none;html=1;entryX=0;entryY=0;entryDx=0;entryDy=0;exitX=0;exitY=0;exitDx=0;exitDy=0;strokeWidth=2;fontColor=light-dark(#000000,#000000);strokeColor=light-dark(#000000,#000000);" edge="1" parent="31">
                    <mxGeometry width="50" height="50" relative="1" as="geometry">
                        <mxPoint x="80" y="120" as="sourcePoint"/>
                        <mxPoint y="40" as="targetPoint"/>
                    </mxGeometry>
                </mxCell>
                <mxCell id="36" value="&lt;b&gt;&lt;font style=&quot;font-size: 20px; color: light-dark(rgb(0, 0, 0), rgb(0, 0, 0));&quot;&gt;AB&lt;/font&gt;&lt;/b&gt;" style="text;html=1;align=center;verticalAlign=middle;resizable=0;points=[];autosize=1;strokeColor=none;fillColor=none;fontColor=light-dark(#000000,#000000);container=0;" vertex="1" parent="31">
                    <mxGeometry x="30" y="40" width="50" height="40" as="geometry"/>
                </mxCell>
                <mxCell id="37" value="01" style="whiteSpace=wrap;html=1;aspect=fixed;fillColor=light-dark(#FFFFFF,#FFFFFF);strokeWidth=2;fontSize=24;strokeColor=light-dark(#000000,#000000);fontColor=light-dark(#000000,#080808);container=0;" vertex="1" parent="31">
                    <mxGeometry y="200" width="80" height="80" as="geometry"/>
                </mxCell>
                <mxCell id="38" value="10" style="whiteSpace=wrap;html=1;aspect=fixed;fillColor=light-dark(#FFFFFF,#FFFFFF);strokeWidth=2;fontSize=24;strokeColor=light-dark(#000000,#000000);fontColor=light-dark(#000000,#080808);container=0;" vertex="1" parent="31">
                    <mxGeometry y="280" width="80" height="80" as="geometry"/>
                </mxCell>
                <mxCell id="39" value="00" style="whiteSpace=wrap;html=1;aspect=fixed;fillColor=light-dark(#FFFFFF,#FFFFFF);strokeWidth=2;fontSize=24;strokeColor=light-dark(#000000,#000000);fontColor=light-dark(#000000,#080808);container=0;" vertex="1" parent="31">
                    <mxGeometry y="120" width="80" height="80" as="geometry"/>
                </mxCell>
                <mxCell id="40" value="11" style="whiteSpace=wrap;html=1;aspect=fixed;fillColor=light-dark(#FFFFFF,#FFFFFF);strokeWidth=2;fontSize=24;strokeColor=light-dark(#000000,#000000);fontColor=light-dark(#000000,#080808);container=0;" vertex="1" parent="31">
                    <mxGeometry y="360" width="80" height="80" as="geometry"/>
                </mxCell>
                <mxCell id="41" value="00" style="whiteSpace=wrap;html=1;aspect=fixed;fillColor=light-dark(#FFFFFF,#FFFFFF);strokeWidth=2;fontSize=24;strokeColor=light-dark(#000000,#000000);fontColor=light-dark(#000000,#080808);container=0;" vertex="1" parent="31">
                    <mxGeometry x="80" y="40" width="80" height="80" as="geometry"/>
                </mxCell>
                <mxCell id="42" value="01" style="whiteSpace=wrap;html=1;aspect=fixed;fillColor=light-dark(#FFFFFF,#FFFFFF);strokeWidth=2;fontSize=24;strokeColor=light-dark(#000000,#000000);fontColor=light-dark(#000000,#080808);container=0;" vertex="1" parent="31">
                    <mxGeometry x="160" y="40" width="80" height="80" as="geometry"/>
                </mxCell>
                <mxCell id="43" value="10" style="whiteSpace=wrap;html=1;aspect=fixed;fillColor=light-dark(#FFFFFF,#FFFFFF);strokeWidth=2;fontSize=24;strokeColor=light-dark(#000000,#000000);fontColor=light-dark(#000000,#080808);container=0;" vertex="1" parent="31">
                    <mxGeometry x="240" y="40" width="80" height="80" as="geometry"/>
                </mxCell>
                <mxCell id="44" value="11" style="whiteSpace=wrap;html=1;aspect=fixed;fillColor=light-dark(#FFFFFF,#FFFFFF);strokeWidth=2;fontSize=24;strokeColor=light-dark(#000000,#000000);fontColor=light-dark(#000000,#080808);container=0;" vertex="1" parent="31">
                    <mxGeometry x="320" y="40" width="80" height="80" as="geometry"/>
                </mxCell>
                <mxCell id="45" value="" style="whiteSpace=wrap;html=1;aspect=fixed;strokeWidth=2;shadow=0;strokeColor=light-dark(#000000,#2E2E2E);fillColor=light-dark(#FFFFFF,#FFFFFF);fontColor=light-dark(#000000,#080808);container=0;" vertex="1" parent="31">
                    <mxGeometry x="80" y="120" width="80" height="80" as="geometry"/>
                </mxCell>
                <mxCell id="46" value="" style="whiteSpace=wrap;html=1;aspect=fixed;strokeWidth=2;shadow=0;strokeColor=light-dark(#000000,#2E2E2E);fillColor=light-dark(#FFFFFF,#FFFFFF);fontColor=light-dark(#000000,#080808);container=0;" vertex="1" parent="31">
                    <mxGeometry x="160" y="120" width="80" height="80" as="geometry"/>
                </mxCell>
                <mxCell id="47" value="" style="whiteSpace=wrap;html=1;aspect=fixed;strokeWidth=2;shadow=0;strokeColor=light-dark(#000000,#2E2E2E);fillColor=light-dark(#FFFFFF,#FFFFFF);fontColor=light-dark(#000000,#080808);container=0;" vertex="1" parent="31">
                    <mxGeometry x="240" y="120" width="80" height="80" as="geometry"/>
                </mxCell>
                <mxCell id="48" value="" style="whiteSpace=wrap;html=1;aspect=fixed;strokeWidth=2;shadow=0;strokeColor=light-dark(#000000,#2E2E2E);fillColor=light-dark(#FFFFFF,#FFFFFF);fontColor=light-dark(#000000,#080808);container=0;" vertex="1" parent="31">
                    <mxGeometry x="320" y="120" width="80" height="80" as="geometry"/>
                </mxCell>
                <mxCell id="49" value="" style="whiteSpace=wrap;html=1;aspect=fixed;strokeWidth=2;shadow=0;strokeColor=light-dark(#000000,#2E2E2E);fillColor=light-dark(#FFFFFF,#FFFFFF);fontColor=light-dark(#000000,#080808);container=0;" vertex="1" parent="31">
                    <mxGeometry x="80" y="200" width="80" height="80" as="geometry"/>
                </mxCell>
                <mxCell id="50" value="" style="whiteSpace=wrap;html=1;aspect=fixed;strokeWidth=2;shadow=0;strokeColor=light-dark(#000000,#2E2E2E);fillColor=light-dark(#FFFFFF,#FFFFFF);fontColor=light-dark(#000000,#080808);container=0;" vertex="1" parent="31">
                    <mxGeometry x="160" y="200" width="80" height="80" as="geometry"/>
                </mxCell>
                <mxCell id="51" value="" style="whiteSpace=wrap;html=1;aspect=fixed;strokeWidth=2;shadow=0;strokeColor=light-dark(#000000,#2E2E2E);fillColor=light-dark(#FFFFFF,#FFFFFF);fontColor=light-dark(#000000,#080808);container=0;" vertex="1" parent="31">
                    <mxGeometry x="240" y="200" width="80" height="80" as="geometry"/>
                </mxCell>
                <mxCell id="52" value="" style="whiteSpace=wrap;html=1;aspect=fixed;strokeWidth=2;shadow=0;strokeColor=light-dark(#000000,#2E2E2E);fillColor=light-dark(#FFFFFF,#FFFFFF);fontColor=light-dark(#000000,#080808);container=0;" vertex="1" parent="31">
                    <mxGeometry x="320" y="200" width="80" height="80" as="geometry"/>
                </mxCell>
                <mxCell id="53" value="" style="whiteSpace=wrap;html=1;aspect=fixed;strokeWidth=2;shadow=0;strokeColor=light-dark(#000000,#2E2E2E);fillColor=light-dark(#FFFFFF,#FFFFFF);fontColor=light-dark(#000000,#080808);container=0;" vertex="1" parent="31">
                    <mxGeometry x="80" y="280" width="80" height="80" as="geometry"/>
                </mxCell>
                <mxCell id="54" value="" style="whiteSpace=wrap;html=1;aspect=fixed;strokeWidth=2;shadow=0;strokeColor=light-dark(#000000,#2E2E2E);fillColor=light-dark(#FFFFFF,#FFFFFF);fontColor=light-dark(#000000,#080808);container=0;" vertex="1" parent="31">
                    <mxGeometry x="160" y="280" width="80" height="80" as="geometry"/>
                </mxCell>
                <mxCell id="55" value="" style="whiteSpace=wrap;html=1;aspect=fixed;strokeWidth=2;shadow=0;strokeColor=light-dark(#000000,#2E2E2E);fillColor=light-dark(#FFFFFF,#FFFFFF);fontColor=light-dark(#000000,#080808);container=0;" vertex="1" parent="31">
                    <mxGeometry x="240" y="280" width="80" height="80" as="geometry"/>
                </mxCell>
                <mxCell id="56" value="" style="whiteSpace=wrap;html=1;aspect=fixed;strokeWidth=2;shadow=0;strokeColor=light-dark(#000000,#2E2E2E);fillColor=light-dark(#FFFFFF,#FFFFFF);fontColor=light-dark(#000000,#080808);container=0;" vertex="1" parent="31">
                    <mxGeometry x="320" y="280" width="80" height="80" as="geometry"/>
                </mxCell>
                <mxCell id="57" value="" style="whiteSpace=wrap;html=1;aspect=fixed;strokeWidth=2;shadow=0;strokeColor=light-dark(#000000,#2E2E2E);fillColor=light-dark(#FFFFFF,#FFFFFF);fontColor=light-dark(#000000,#080808);container=0;" vertex="1" parent="31">
                    <mxGeometry x="80" y="360" width="80" height="80" as="geometry"/>
                </mxCell>
                <mxCell id="58" value="" style="whiteSpace=wrap;html=1;aspect=fixed;strokeWidth=2;shadow=0;strokeColor=light-dark(#000000,#2E2E2E);fillColor=light-dark(#FFFFFF,#FFFFFF);fontColor=light-dark(#000000,#080808);container=0;" vertex="1" parent="31">
                    <mxGeometry x="160" y="360" width="80" height="80" as="geometry"/>
                </mxCell>
                <mxCell id="59" value="" style="whiteSpace=wrap;html=1;aspect=fixed;strokeWidth=2;shadow=0;strokeColor=light-dark(#000000,#2E2E2E);fillColor=light-dark(#FFFFFF,#FFFFFF);fontColor=light-dark(#000000,#080808);container=0;" vertex="1" parent="31">
                    <mxGeometry x="240" y="360" width="80" height="80" as="geometry"/>
                </mxCell>
                <mxCell id="60" value="" style="whiteSpace=wrap;html=1;aspect=fixed;strokeWidth=2;shadow=0;strokeColor=light-dark(#000000,#2E2E2E);fillColor=light-dark(#FFFFFF,#FFFFFF);fontColor=light-dark(#000000,#080808);container=0;" vertex="1" parent="31">
                    <mxGeometry x="320" y="360" width="80" height="80" as="geometry"/>
                </mxCell>
                <mxCell id="61" value="" style="whiteSpace=wrap;html=1;aspect=fixed;fillColor=none;strokeColor=light-dark(#000000,#060606);strokeWidth=3;" vertex="1" parent="31">
                    <mxGeometry y="40" width="400" height="400" as="geometry"/>
                </mxCell>
            </root>
        </mxGraphModel>
    </diagram>
</mxfile>